<svg width="128" height="128" viewBox="0 0 128 128" fill="none" xmlns="http://www.w3.org/2000/svg">
  <path fill-rule="evenodd" clip-rule="evenodd" d="M61.0932 0.120333C58.0815 0.273027 55.3496 0.544961 55.0228 0.723389C54.6959 0.901817 53.8198 1.04765 53.0755 1.04765C52.3311 1.04765 51.6338 1.19091 51.5251 1.36676C51.4173 1.54261 50.4497 1.79567 49.375 1.93035C48.3004 2.06503 46.9554 2.43647 46.3856 2.75644C45.8167 3.07641 44.6975 3.44184 43.9001 3.5688C43.1027 3.69576 41.9049 4.10666 41.2376 4.48239C40.5711 4.85812 39.8601 5.16522 39.659 5.16522C39.4579 5.16522 38.77 5.39683 38.1292 5.67991C37.4892 5.963 36.442 6.42623 35.802 6.70932C35.1612 6.9924 34.4682 7.22401 34.262 7.22401C34.0549 7.22401 33.8855 7.34925 33.8855 7.5028C33.8855 7.65635 33.3465 7.99433 32.6868 8.2534C32.028 8.51332 31.1545 9.08207 30.7455 9.5187C30.3365 9.95534 29.7924 10.3122 29.5374 10.3122C29.2816 10.3122 28.9839 10.5438 28.876 10.8269C28.7674 11.11 28.491 11.3416 28.2617 11.3416C28.0324 11.3416 27.4832 11.7276 27.0408 12.1994C26.5985 12.6712 26.0594 13.0572 25.843 13.0572C25.6265 13.0572 25.0875 13.4433 24.6452 13.9151C24.2028 14.3869 23.7049 14.7729 23.538 14.7729C23.1641 14.7729 13.9255 24.0134 13.5876 24.7254C13.4532 25.0077 13.0391 25.7016 12.667 26.2678C12.2948 26.834 11.8832 27.5288 11.7532 27.8119C11.6231 28.095 11.1851 28.6354 10.7795 29.0129C10.374 29.3903 9.79305 30.2473 9.48846 30.9181C9.18387 31.5889 8.61918 32.4236 8.23416 32.7727C7.8483 33.1227 7.53344 33.6159 7.53344 33.8699C7.53344 34.1238 7.39142 34.3314 7.21859 34.3314C7.0449 34.3314 6.80192 34.7929 6.67872 35.3565C6.55551 35.9209 6.31167 36.4708 6.13798 36.578C5.9643 36.6861 5.81884 37.0353 5.81456 37.3544C5.81029 37.6735 5.52281 38.3049 5.17545 38.7578C4.82808 39.2107 4.61675 39.8592 4.70573 40.1998C4.87942 40.8672 4.11024 42.9097 3.68501 42.9097C3.54298 42.9097 3.42577 43.3343 3.42491 43.8533C3.4232 44.3723 3.19219 45.2395 2.91156 45.78C2.63007 46.3204 2.39992 47.1216 2.39992 47.5608C2.39992 48 2.26132 48.4452 2.09105 48.5508C1.92165 48.6554 1.67524 49.6685 1.54433 50.8017C1.41343 51.9349 1.16702 52.948 0.997615 53.0526C0.827353 53.1581 0.688748 54.3934 0.688748 55.7977C0.688748 57.2706 0.544153 58.3506 0.346513 58.3506C-0.115504 58.3506 -0.115504 69.2158 0.346513 69.5023C0.534742 69.619 0.688748 71.0181 0.688748 72.6111C0.688748 74.2041 0.831633 75.5071 1.00617 75.5071C1.18071 75.5071 1.42968 76.3581 1.55973 77.3987C1.68978 78.4392 1.93106 79.3751 2.0979 79.478C2.26389 79.581 2.39992 80.1017 2.39992 80.6352C2.39992 81.1688 2.63007 82.0472 2.91156 82.5877C3.19219 83.1281 3.4232 84.0726 3.42491 84.6859C3.42577 85.2992 3.54298 85.8011 3.68501 85.8011C4.10083 85.8011 4.82893 87.7175 4.62017 88.2622C4.51493 88.5367 4.74252 89.0454 5.12582 89.3928C5.50913 89.7402 5.82227 90.2077 5.82227 90.4316C5.82227 90.8906 7.48296 94.1949 8.75607 96.2666C9.21895 97.0215 9.7323 97.9479 9.89571 98.3254C10.0591 98.7028 10.5186 99.3059 10.9164 99.6653C11.3143 100.025 11.6403 100.466 11.6403 100.645C11.6403 100.825 12.08 101.535 12.6173 102.222C13.1546 102.91 13.6552 103.664 13.7296 103.898C13.9127 104.474 22.9665 113.595 23.3558 113.595C23.5252 113.595 24.5861 114.405 25.7121 115.396C26.8389 116.387 27.9914 117.15 28.2746 117.093C28.5578 117.035 29.3201 117.455 29.9695 118.026C30.6189 118.598 31.963 119.438 32.9572 119.895C33.9514 120.35 34.9704 120.972 35.2228 121.277C35.4743 121.581 36.0279 121.83 36.4523 121.83C36.8766 121.83 37.4156 122.061 37.6501 122.345C37.8845 122.628 38.4526 122.859 38.9129 122.859C39.3724 122.859 40.2536 123.245 40.8705 123.717C41.4882 124.189 42.2497 124.575 42.5637 124.575C42.8777 124.575 43.4407 124.729 43.8146 124.918C44.1885 125.107 44.8096 125.422 45.1946 125.617C45.5797 125.813 46.4096 125.876 47.0376 125.758C47.722 125.629 48.2739 125.693 48.4116 125.917C48.5383 126.122 49.3725 126.291 50.2648 126.291C51.1572 126.291 52.0436 126.448 52.2353 126.64C52.4269 126.832 53.8489 127.087 55.3958 127.206C56.9418 127.326 58.2885 127.555 58.3869 127.715C58.6222 128.096 69.0407 128.095 69.276 127.713C69.3752 127.552 70.8862 127.312 72.6333 127.18C74.3795 127.048 75.9555 126.794 76.1344 126.616C76.3132 126.436 76.9583 126.291 77.5683 126.291C78.1784 126.291 78.773 126.136 78.8893 125.947C79.0168 125.741 79.8442 125.691 80.9633 125.822C81.9917 125.944 82.825 125.905 82.825 125.736C82.825 125.567 83.3256 125.227 83.9373 124.979C84.5491 124.732 85.2857 124.405 85.574 124.253C85.8624 124.101 86.6324 123.859 87.2852 123.718C87.938 123.576 88.5489 123.352 88.643 123.22C88.7371 123.088 89.852 122.478 91.1208 121.864C92.3888 121.25 93.5147 120.605 93.6217 120.431C93.7295 120.257 94.0923 120.114 94.4285 120.114C94.7647 120.114 95.3183 119.805 95.6588 119.428C95.9994 119.051 96.4186 118.742 96.5906 118.742C96.7617 118.742 97.3923 118.374 97.992 117.923C98.5909 117.474 99.4662 116.989 99.9368 116.848C100.407 116.705 101.947 115.552 103.359 114.285C104.771 113.018 106.118 112.048 106.354 112.13C106.602 112.217 106.781 111.995 106.781 111.602C106.781 111.171 107.083 110.848 107.608 110.716C108.072 110.599 108.627 110.072 108.873 109.515C109.115 108.968 109.495 108.592 109.72 108.678C109.944 108.764 110.336 108.362 110.591 107.784C110.846 107.206 111.248 106.732 111.485 106.732C111.722 106.732 111.915 106.561 111.915 106.354C111.915 106.145 112.626 105.183 113.494 104.214C114.363 103.246 115.216 102.142 115.391 101.762C115.911 100.632 116.474 99.7434 117.582 98.3082C118.156 97.5628 119.348 95.4679 120.23 93.6528C121.111 91.8376 122.065 90.1588 122.349 89.9221C122.634 89.6853 122.866 89.1535 122.866 88.7409C122.866 88.3282 123.092 87.6917 123.369 87.3246C123.645 86.9583 123.876 86.1751 123.882 85.5832C123.888 84.9913 124.123 84.0648 124.405 83.5244C124.685 82.984 124.916 82.0489 124.918 81.4467C124.919 80.8445 125.074 80.2561 125.262 80.1394C125.45 80.0227 125.604 79.5595 125.604 79.11C125.604 78.6605 125.74 78.2084 125.906 78.1064C126.072 78.0034 126.316 76.6052 126.45 74.9984C126.583 73.3926 126.832 71.9918 127.004 71.8854C127.175 71.779 127.316 70.4751 127.316 68.9876C127.316 67.5002 127.47 66.1877 127.658 66.071C127.846 65.9544 128 65.1051 128 64.1838C128 63.2625 127.846 62.4132 127.658 62.2966C127.47 62.1799 127.316 60.8674 127.316 59.38C127.316 57.8925 127.175 56.5886 127.004 56.4822C126.832 56.3758 126.592 54.939 126.469 53.2885C126.263 50.5229 126.048 49.6016 125.222 47.9751C125.056 47.6475 124.919 47.0298 124.918 46.6026C124.916 46.1754 124.685 45.3836 124.405 44.8432C124.123 44.3028 123.893 43.3377 123.893 42.6986C123.893 42.0596 123.756 41.5371 123.588 41.5371C123.42 41.5371 123.182 41.1125 123.059 40.5935C122.629 38.7767 119.137 32.0916 118.098 31.0931C117.521 30.5389 117.049 29.7918 117.049 29.4323C117.049 29.0729 116.514 28.1533 115.861 27.3881C115.208 26.6229 114.745 25.8809 114.833 25.7394C114.92 25.5978 114.068 24.5864 112.94 23.4927C111.811 22.3981 110.888 21.3353 110.888 21.1303C110.888 20.6585 106.713 16.4886 106.241 16.4886C106.047 16.4886 105.366 15.9481 104.728 15.2876C104.09 14.6271 103.433 14.0866 103.268 14.0866C103.103 14.0866 102.238 13.469 101.345 12.7141C100.452 11.9592 99.5689 11.3416 99.3832 11.3416C99.1967 11.3416 98.5216 10.8012 97.8834 10.1406C97.2451 9.4801 96.5332 8.93966 96.3022 8.93966C96.0712 8.93966 95.4253 8.55364 94.8657 8.08184C94.3062 7.61003 93.5199 7.22401 93.1177 7.22401C92.7156 7.22401 92.2972 6.9924 92.1894 6.70932C92.0731 6.4065 91.5486 6.19033 90.9163 6.18346C90.3251 6.17746 89.5422 5.94584 89.1769 5.66876C88.8107 5.39168 88.2187 5.16522 87.8602 5.16522C87.5017 5.16522 86.8001 4.87784 86.3004 4.52613C85.8008 4.17528 84.8023 3.77983 84.0828 3.64858C83.3624 3.51647 82.274 3.12788 81.664 2.78389C81.0531 2.4399 79.602 2.04788 78.4376 1.91234C77.274 1.7768 76.2353 1.52717 76.1309 1.35732C76.0257 1.18661 75.1881 1.04765 74.2692 1.04765C73.3503 1.04765 72.5033 0.893236 72.3869 0.704514C72.2705 0.515792 71.0599 0.361381 69.6969 0.361381C68.334 0.361381 67.0728 0.244722 66.894 0.101465C66.7152 -0.0409347 64.1048 -0.0323602 61.0932 0.120333ZM44.0276 39.9913C44.5666 40.2727 45.3452 40.5043 45.7576 40.506C46.17 40.5069 46.6123 40.6776 46.7407 40.886C46.869 41.0936 47.456 41.4848 48.0446 41.7542C48.6332 42.0235 49.6155 42.5451 50.2272 42.9131L51.3395 43.5822V41.5183V39.4543L72.8831 39.5521C89.5551 39.6276 94.5243 39.7469 94.8546 40.0788C95.0899 40.3147 95.7042 40.5077 96.2201 40.5077C96.736 40.5077 97.2477 40.6519 97.3563 40.8286C97.465 41.0053 98.3599 41.5492 99.3447 42.0373C100.329 42.5254 101.497 43.137 101.941 43.3961C102.896 43.9536 105.755 46.7167 105.755 47.0813C105.755 47.2211 106.217 48.0223 106.781 48.8613C107.346 49.7002 107.808 50.5366 107.808 50.7193C107.808 50.9021 108.102 51.427 108.461 51.8843C108.819 52.3415 109.224 53.4824 109.359 54.4183C109.495 55.3542 109.75 56.3021 109.926 56.5243C110.798 57.6249 109.625 68.1779 108.476 69.5538C108.185 69.9029 107.51 71.0379 106.977 72.0758C104.939 76.045 102.037 78.356 95.5057 81.2151C92.5163 82.5242 83.2913 82.6305 80.9616 81.3833C80.2198 80.9852 79.1084 80.5657 78.4932 80.4499C77.8772 80.3341 77.1953 80.0236 76.9771 79.7602C76.7589 79.4969 76.379 79.2816 76.1326 79.2816C75.5004 79.2816 70.0768 74.0668 69.4779 72.883C69.2058 72.3452 68.7087 71.5362 68.375 71.0859C68.0405 70.6355 67.7667 69.933 67.7667 69.5246C67.7667 69.1163 67.5853 68.5999 67.3646 68.3786C65.9606 66.9709 65.9572 55.6201 67.3586 53.0012C67.552 52.6409 67.8908 51.8551 68.1115 51.2555C68.6197 49.8778 68.3759 49.925 74.3547 50.0477C79.9178 50.1609 80.0897 50.2467 78.4615 52.0824C77.4417 53.2328 76.6648 55.3379 76.6648 56.9523C76.6648 57.5108 76.5108 58.0623 76.3226 58.179C76.1344 58.2957 75.9804 59.4537 75.9804 60.7525C75.9804 62.0512 76.1344 63.2093 76.3226 63.326C76.5108 63.4426 76.6648 64.116 76.6648 64.822C76.6648 65.528 76.794 66.252 76.9523 66.4313C77.1106 66.6106 77.4511 67.2977 77.7095 67.9582C77.9679 68.6188 78.2981 69.3136 78.4436 69.5023C79.928 71.4299 80.5654 72.0758 80.9838 72.0758C81.255 72.0758 81.5665 72.3074 81.6743 72.5905C81.7829 72.8736 82.1508 73.1052 82.4914 73.1052C82.8327 73.1052 83.548 73.3248 84.081 73.5942C86.3509 74.7394 87.7695 74.9315 89.8853 74.3799C93.1169 73.5367 96.1773 71.9592 96.4254 71.0078C96.5187 70.6518 96.7899 70.3602 97.0286 70.3602C97.2673 70.3602 97.7157 69.8266 98.0245 69.1738C98.3334 68.521 98.7227 67.9025 98.8895 67.7996C99.0564 67.6958 99.2968 66.9958 99.4234 66.2426C99.55 65.4894 99.7947 64.7869 99.9667 64.6796C100.395 64.4154 100.366 57.4155 99.9368 57.1496C99.7485 57.0329 99.5945 56.6092 99.5945 56.2086C99.5945 54.3925 95.8702 49.086 94.5962 49.086C94.3737 49.086 94.1068 48.863 94.0024 48.5902C93.898 48.3174 93.2273 47.9889 92.5111 47.8593C91.795 47.7298 91.0378 47.4879 90.8282 47.3223C90.6177 47.1551 83.8646 47.0598 75.7699 47.1096L61.0932 47.1988L60.922 66.9623C60.7988 81.2297 60.6405 86.8596 60.3539 87.2071C60.1349 87.4721 59.8448 88.3059 59.7088 89.0608C59.281 91.425 56.1239 96.4381 55.0621 96.4381C54.8859 96.4381 53.9627 97.0558 53.0096 97.8107C52.0573 98.5656 51.099 99.184 50.8809 99.1849C50.6627 99.1866 50.0544 99.4122 49.529 99.6867C49.0037 99.9621 47.3867 100.29 45.9356 100.417C44.4845 100.543 43.107 100.797 42.876 100.981C42.6441 101.165 41.7971 101.219 40.9937 101.102C40.1895 100.985 38.1463 100.732 36.4523 100.542C32.9923 100.153 30.6462 99.3187 26.293 96.9271C20.1191 93.5353 23.5483 82.2488 29.8121 85.3481C32.6979 86.7764 33.201 87.4678 33.201 90.0044C33.201 92.1928 33.2447 92.3206 33.9882 92.3206C34.4211 92.3206 34.955 92.5007 35.174 92.7203C36.6781 94.2284 47.8991 92.4415 47.9137 90.6907C47.9154 90.4548 48.1096 90.2584 48.3449 90.2532C48.5802 90.2489 49.2347 89.2839 49.7994 88.1086L50.8261 85.9726L50.9211 68.5047L51.0152 51.0367L50.2717 50.2432C49.8627 49.8066 48.9729 49.2679 48.2944 49.0474C47.6168 48.8261 46.7578 48.4358 46.3865 48.1793C45.5275 47.5865 37.2865 47.5239 36.1733 48.1012C34.9404 48.7412 32.1743 50.9201 32.1743 51.2512C32.1743 51.421 31.8039 52.0018 31.3513 52.5414C30.8978 53.0809 30.4221 54.1455 30.2946 54.9055C30.1663 55.6664 29.9207 56.375 29.7487 56.4822C29.3475 56.731 29.3381 63.0532 29.7393 63.3011C29.9053 63.4049 30.1492 64.2087 30.2809 65.088C30.5453 66.8517 32.6098 69.3805 35.3272 71.2686C37.2659 72.6145 44.1269 72.7355 46.3018 71.4608C47.0136 71.0447 47.6681 70.7033 47.7563 70.7033C48.4424 70.7033 47.8581 77.952 47.1471 78.2599C46.7236 78.4435 46.1461 78.7257 45.8637 78.887C43.3868 80.3041 42.7254 80.4414 38.3414 80.4414C35.6446 80.4414 33.7649 80.2947 33.4851 80.0639C33.2353 79.8563 32.4507 79.5775 31.7431 79.4446C31.0347 79.3125 30.3708 79.0663 30.2672 78.899C30.1637 78.7309 29.4339 78.2874 28.6459 77.9133C26.9048 77.0864 26.0141 76.413 26.0141 75.9215C26.0141 75.719 25.7061 75.4557 25.3296 75.3356C24.9532 75.2155 24.6452 74.9856 24.6452 74.8243C24.6452 74.6622 24.2815 74.0943 23.8366 73.5607C22.6859 72.1796 20.7933 68.4301 20.2295 66.415C19.6691 64.4146 19.3149 55.9487 19.7914 55.9487C19.966 55.9487 20.2089 55.3199 20.3313 54.5513C20.6248 52.7104 23.0204 47.5943 24.2148 46.2595C26.2306 44.0051 27.2316 43.0152 27.7253 42.7913C28.0076 42.6626 29.0822 42.0965 30.1141 41.5329C31.1459 40.9693 32.224 40.5026 32.5097 40.4957C32.7955 40.4889 33.4149 40.2624 33.8855 39.993C35.1175 39.2871 42.6784 39.2853 44.0276 39.9913Z" fill="#0DC2EF"/>
  <path fill-rule="evenodd" clip-rule="evenodd" d="M33.8855 39.9931C33.415 40.2624 32.7955 40.4889 32.5097 40.4957C32.224 40.5026 31.1459 40.9693 30.1141 41.5329C29.0823 42.0965 28.0077 42.6626 27.7253 42.7913C27.2316 43.0152 26.2306 44.0051 24.2148 46.2595C23.0204 47.5943 20.6248 52.7104 20.3313 54.5513C20.209 55.3199 19.966 55.9487 19.7914 55.9487C19.3149 55.9487 19.6691 64.4146 20.2295 66.415C20.7933 68.4301 22.6859 72.1796 23.8367 73.5607C24.2816 74.0943 24.6452 74.6622 24.6452 74.8243C24.6452 74.9856 24.9532 75.2155 25.3297 75.3356C25.7061 75.4557 26.0141 75.719 26.0141 75.9215C26.0141 76.413 26.9048 77.0864 28.6459 77.9134C29.4339 78.2874 30.1637 78.7309 30.2672 78.899C30.3708 79.0663 31.0347 79.3125 31.7431 79.4446C32.4507 79.5775 33.2353 79.8563 33.4851 80.0639C33.7649 80.2947 35.6446 80.4414 38.3414 80.4414C42.7254 80.4414 43.3868 80.3041 45.8637 78.887C46.1461 78.7257 46.7236 78.4435 47.1471 78.2599C47.8581 77.952 48.4425 70.7033 47.7563 70.7033C47.6682 70.7033 47.0136 71.0447 46.3018 71.4608C44.1269 72.7355 37.2659 72.6145 35.3272 71.2686C32.6098 69.3805 30.5453 66.8517 30.2809 65.088C30.1492 64.2087 29.9053 63.4049 29.7393 63.3011C29.3381 63.0532 29.3475 56.731 29.7488 56.4822C29.9207 56.375 30.1663 55.6664 30.2946 54.9055C30.4221 54.1455 30.8978 53.0809 31.3513 52.5414C31.8039 52.0018 32.1744 51.421 32.1744 51.2512C32.1744 50.9201 34.9405 48.7412 36.1734 48.1013C37.2865 47.5239 45.5275 47.5865 46.3865 48.1793C46.7578 48.4358 47.6168 48.8261 48.2945 49.0474C48.9729 49.2679 49.8627 49.8066 50.2717 50.2432L51.0152 51.0367L50.9211 68.5047L50.8261 85.9727L49.7994 88.1087C49.2347 89.2839 48.5802 90.2489 48.3449 90.2532C48.1096 90.2584 47.9154 90.4548 47.9137 90.6907C47.8992 92.4415 36.6782 94.2284 35.174 92.7203C34.955 92.5007 34.4211 92.3206 33.9882 92.3206C33.2447 92.3206 33.2011 92.1928 33.2011 90.0044C33.2011 87.4678 32.698 86.7764 29.8121 85.3482C23.5483 82.2488 20.1191 93.5353 26.293 96.9271C30.6463 99.3187 32.9923 100.153 36.4523 100.542C38.1463 100.732 40.1895 100.985 40.9937 101.102C41.7971 101.219 42.6442 101.165 42.876 100.981C43.107 100.797 44.4845 100.543 45.9356 100.417C47.3867 100.29 49.0037 99.9621 49.5291 99.6868C50.0544 99.4122 50.6627 99.1866 50.8809 99.1849C51.0991 99.1841 52.0573 98.5656 53.0096 97.8107C53.9627 97.0558 54.8859 96.4382 55.0621 96.4382C56.1239 96.4382 59.281 91.425 59.7088 89.0608C59.8449 88.306 60.1349 87.4721 60.3539 87.2071C60.6406 86.8596 60.7988 81.2297 60.922 66.9623L61.0932 47.1988L75.7699 47.1096C83.8646 47.0598 90.6177 47.1551 90.8282 47.3223C91.0378 47.4879 91.795 47.7298 92.5112 47.8594C93.2273 47.9889 93.8981 48.3174 94.0024 48.5902C94.1068 48.863 94.3738 49.086 94.5962 49.086C95.8702 49.086 99.5946 54.3926 99.5946 56.2086C99.5946 56.6092 99.7486 57.033 99.9368 57.1496C100.366 57.4155 100.395 64.4154 99.9667 64.6796C99.7948 64.7869 99.5501 65.4894 99.4234 66.2426C99.2968 66.9958 99.0564 67.6958 98.8896 67.7996C98.7227 67.9025 98.3334 68.521 98.0246 69.1738C97.7157 69.8266 97.2674 70.3602 97.0287 70.3602C96.7899 70.3602 96.5187 70.6518 96.4255 71.0078C96.1773 71.9592 93.1169 73.5367 89.8854 74.38C87.7695 74.9315 86.3509 74.7394 84.0811 73.5942C83.548 73.3248 82.8328 73.1052 82.4914 73.1052C82.1509 73.1052 81.783 72.8736 81.6743 72.5905C81.5665 72.3074 81.2551 72.0758 80.9838 72.0758C80.5655 72.0758 79.928 71.4299 78.4436 69.5024C78.2982 69.3136 77.9679 68.6188 77.7095 67.9583C77.4511 67.2977 77.1106 66.6106 76.9523 66.4313C76.794 66.252 76.6648 65.528 76.6648 64.822C76.6648 64.116 76.5108 63.4427 76.3226 63.326C76.1344 63.2093 75.9804 62.0513 75.9804 60.7525C75.9804 59.4538 76.1344 58.2957 76.3226 58.179C76.5108 58.0624 76.6648 57.5108 76.6648 56.9523C76.6648 55.3379 77.4417 53.2328 78.4616 52.0824C80.0897 50.2467 79.9178 50.1609 74.3548 50.0477C68.3759 49.925 68.6198 49.8778 68.1115 51.2555C67.8908 51.8551 67.552 52.6409 67.3586 53.0012C65.9572 55.6201 65.9606 66.9709 67.3646 68.3786C67.5854 68.5999 67.7667 69.1163 67.7667 69.5247C67.7667 69.933 68.0405 70.6355 68.3751 71.0859C68.7087 71.5363 69.2058 72.3452 69.4779 72.8831C70.0768 74.0669 75.5004 79.2816 76.1327 79.2816C76.3791 79.2816 76.759 79.4969 76.9771 79.7603C77.1953 80.0236 77.8772 80.3341 78.4932 80.45C79.1084 80.5658 80.2198 80.9852 80.9616 81.3833C83.2914 82.6305 92.5163 82.5242 95.5057 81.2151C102.037 78.356 104.939 76.045 106.977 72.0758C107.51 71.0379 108.185 69.903 108.476 69.5538C109.625 68.1779 110.798 57.6249 109.926 56.5243C109.75 56.3021 109.495 55.3542 109.359 54.4183C109.224 53.4824 108.819 52.3415 108.461 51.8843C108.102 51.427 107.808 50.9021 107.808 50.7193C107.808 50.5366 107.346 49.7002 106.781 48.8613C106.217 48.0223 105.755 47.2211 105.755 47.0813C105.755 46.7167 102.896 43.9537 101.941 43.3961C101.497 43.137 100.329 42.5254 99.3447 42.0373C98.3599 41.5492 97.465 41.0053 97.3563 40.8286C97.2477 40.6519 96.736 40.5078 96.2201 40.5078C95.7042 40.5078 95.0899 40.3147 94.8546 40.0788C94.5244 39.7469 89.5551 39.6276 72.8832 39.5521L51.3395 39.4543V41.5183V43.5822L50.2272 42.9131C49.6155 42.5451 48.6333 42.0235 48.0446 41.7542C47.456 41.4848 46.869 41.0936 46.7407 40.8861C46.6124 40.6776 46.17 40.5069 45.7576 40.506C45.3452 40.5043 44.5667 40.2727 44.0277 39.9913C42.6784 39.2853 35.1176 39.2871 33.8855 39.9931Z" fill="white"/>
</svg>